<?xml version="1.0" standalone="no"?>
<!DOCTYPE svg PUBLIC "-//W3C//DTD SVG 20010904//EN"
 "http://www.w3.org/TR/2001/REC-SVG-20010904/DTD/svg10.dtd">
<svg version="1.0" xmlns="http://www.w3.org/2000/svg"
 width="280.000000pt" height="308.000000pt" viewBox="0 0 280.000000 308.000000"
 preserveAspectRatio="xMidYMid meet">
<metadata>
Created by potrace 1.15, written by Peter Selinger 2001-2017
</metadata>
<g transform="translate(0.000000,308.000000) scale(0.100000,-0.100000)"
fill="#fff" stroke="none">
<path d="M1300 2911 c0 -12 12 -14 77 -11 25 1 52 -5 65 -14 12 -9 33 -16 45
-16 13 0 23 -4 23 -10 0 -5 13 -16 28 -24 38 -20 95 -142 94 -201 0 -33 6 -49
28 -74 46 -50 69 -37 30 17 -11 15 -22 47 -24 72 -2 25 -16 68 -30 96 -14 29
-26 56 -26 60 -1 21 -63 79 -97 91 -51 19 -213 30 -213 14z"/>
<path d="M1162 2869 c-54 -39 -87 -105 -96 -187 -3 -35 -17 -91 -30 -125 -25
-60 -26 -77 -3 -77 27 1 87 169 87 244 0 62 32 115 84 140 44 21 54 36 24 36
-13 0 -43 -14 -66 -31z"/>
<path d="M1085 2443 c-12 -12 -15 -25 -10 -50 4 -23 1 -42 -9 -58 -16 -24 -91
-65 -119 -65 -8 0 -28 -5 -44 -11 l-28 -11 24 -9 c18 -7 29 -5 43 8 14 12 24
14 34 8 25 -16 21 -29 -13 -39 -35 -11 -44 -28 -31 -63 4 -14 4 -23 -2 -23 -6
0 -10 4 -10 10 0 19 -38 30 -67 19 -23 -9 -30 -7 -43 9 -23 28 -74 35 -99 14
-21 -17 -91 -127 -91 -142 0 -4 -6 -13 -14 -19 -7 -6 -49 -82 -92 -168 -53
-106 -95 -174 -128 -210 -48 -53 -49 -55 -58 -143 -5 -50 -14 -111 -20 -137
-6 -27 -11 -75 -10 -107 1 -55 -1 -62 -38 -104 -43 -48 -52 -91 -26 -125 10
-13 11 -26 3 -55 -9 -35 -8 -43 15 -73 14 -19 30 -47 35 -64 9 -28 13 -30 66
-33 40 -2 64 2 82 14 16 10 49 18 81 19 30 1 58 5 62 9 10 11 -20 26 -53 26
-17 0 -41 7 -53 16 -19 13 -22 24 -22 76 0 55 4 66 38 110 20 28 49 56 65 64
30 16 36 34 12 34 -24 0 -67 -25 -90 -52 -74 -86 -90 -141 -63 -215 10 -28 10
-36 -5 -50 -16 -16 -21 -16 -60 -3 -30 11 -43 21 -45 37 -2 12 -10 27 -18 33
-18 16 -18 45 2 75 14 22 14 25 -6 45 -15 15 -20 29 -16 45 8 31 112 119 161
136 22 7 49 19 60 26 11 7 36 13 56 13 41 0 69 -24 70 -61 0 -15 15 -37 39
-57 30 -26 50 -34 89 -37 27 -2 59 -9 70 -14 27 -15 65 -14 105 3 39 16 193
169 176 174 -6 2 -23 -6 -36 -19 -20 -18 -29 -21 -42 -13 -14 10 -17 31 -19
145 -1 74 3 190 8 259 6 69 14 175 19 235 12 156 30 284 45 325 8 19 16 52 20
72 4 29 11 39 31 44 29 7 42 45 26 77 -6 12 -14 32 -17 45 -8 26 -18 28 -40 5z
m-318 -301 c7 -4 31 -46 54 -92 38 -77 42 -94 47 -181 3 -75 1 -101 -11 -120
-8 -13 -21 -51 -27 -84 -7 -33 -23 -75 -36 -95 -13 -19 -24 -45 -24 -58 0 -13
-7 -36 -15 -52 -8 -16 -18 -57 -22 -90 -3 -33 -10 -63 -14 -66 -5 -3 -9 -23
-9 -44 0 -56 -17 -59 -61 -11 l-39 42 -63 -7 c-58 -6 -118 -27 -159 -57 -25
-17 -52 2 -56 38 -3 26 32 140 50 159 4 6 8 43 8 84 0 73 0 73 41 110 29 26
59 72 99 153 32 63 76 144 98 180 22 35 48 84 58 109 16 42 50 90 63 90 3 0
12 -4 18 -8z"/>
<path d="M1630 2436 c0 -8 -8 -21 -19 -28 -14 -10 -18 -25 -18 -63 1 -27 -3
-69 -7 -92 -7 -37 -6 -44 10 -50 11 -3 37 -18 59 -33 22 -15 61 -36 86 -47 25
-12 58 -36 73 -56 17 -22 33 -33 44 -31 22 5 30 -1 73 -56 38 -47 40 -54 65
-165 8 -38 27 -99 41 -135 14 -36 34 -92 44 -125 10 -33 31 -98 48 -145 17
-47 31 -104 31 -127 0 -38 3 -43 27 -49 15 -4 38 -20 51 -36 13 -15 28 -28 33
-28 17 0 9 27 -16 50 -32 30 -54 71 -70 135 -7 28 -27 88 -45 135 -17 47 -36
99 -41 115 -5 17 -15 44 -23 60 -22 48 -38 104 -52 182 -15 88 -58 171 -102
198 -18 11 -53 36 -78 56 -26 21 -70 45 -100 54 -33 10 -63 28 -79 47 -22 26
-25 39 -25 105 0 68 2 78 26 99 14 13 22 29 19 34 -10 16 -55 12 -55 -4z"/>
<path d="M1380 2311 c0 -4 -11 -24 -24 -43 -27 -40 -25 -45 26 -77 27 -16 46
-21 67 -16 37 8 48 -8 27 -40 -15 -23 -15 -25 -1 -25 9 0 23 6 31 13 60 48 69
71 34 80 -17 4 -20 12 -18 54 l3 48 -42 0 c-22 0 -45 3 -49 8 -10 10 -54 9
-54 -2z"/>
<path d="M1136 2278 c-3 -13 -8 -48 -11 -78 -4 -30 -10 -89 -15 -130 -5 -41
-11 -177 -14 -302 -6 -250 -9 -238 59 -238 19 0 45 -4 58 -9 14 -5 35 -7 46
-4 19 5 21 10 15 37 -3 17 -12 42 -19 56 -47 98 -55 120 -55 158 0 52 21 65
49 31 16 -19 22 -21 32 -12 10 10 10 20 -4 48 -17 36 -43 45 -64 24 -8 -8 -18
0 -37 27 -14 21 -26 46 -26 56 0 30 22 31 45 2 22 -28 23 -28 49 -10 25 16 26
19 13 39 -8 12 -28 26 -46 32 -35 10 -56 56 -49 110 5 45 27 37 58 -20 15 -28
44 -61 66 -76 23 -16 43 -40 50 -60 14 -42 37 -57 58 -40 24 20 53 93 55 139
2 42 2 42 -34 42 -20 0 -45 5 -57 11 -39 21 -32 -3 14 -41 25 -22 48 -49 51
-60 4 -17 0 -20 -32 -20 -45 0 -102 39 -125 85 -13 27 -13 33 0 53 18 28 13
37 -36 62 -29 15 -41 29 -51 61 -16 49 -36 61 -43 27z"/>
<path d="M1560 2106 c0 -7 7 -19 15 -26 8 -7 15 -25 15 -40 0 -15 -7 -33 -15
-40 -8 -7 -15 -21 -15 -31 0 -15 5 -18 24 -13 19 4 26 0 40 -29 9 -19 16 -45
16 -58 0 -13 11 -39 24 -58 18 -26 26 -53 29 -96 2 -33 9 -71 17 -84 8 -16 14
-76 16 -177 3 -159 13 -223 40 -245 47 -39 53 -118 11 -140 -30 -15 -107 -113
-107 -135 0 -13 65 7 100 30 25 17 56 25 110 29 41 4 102 11 135 16 74 13 95
7 95 -24 0 -19 -10 -28 -43 -43 -23 -10 -57 -19 -75 -20 -18 0 -48 -4 -65 -8
-18 -4 -44 -6 -59 -5 -14 1 -44 -7 -67 -18 -22 -12 -49 -21 -59 -21 -11 0 -33
-7 -48 -15 -16 -8 -36 -15 -44 -15 -8 0 -24 -7 -34 -15 -25 -19 -47 -19 -72
-1 -19 14 -19 15 4 46 13 17 22 32 20 33 -1 1 -18 10 -36 20 -54 28 -99 19
-52 -11 25 -15 26 -47 3 -75 -16 -20 -27 -22 -113 -22 -52 1 -103 4 -112 9
-12 5 -20 1 -28 -13 -16 -31 -34 -26 -79 25 -31 36 -45 44 -61 39 -28 -9 -38
21 -17 57 15 26 15 28 -1 28 -9 0 -37 -14 -61 -30 -24 -17 -56 -30 -71 -30
-15 0 -53 -9 -86 -21 -32 -11 -75 -23 -94 -25 -19 -3 -54 -7 -78 -10 -39 -5
-42 -7 -36 -30 4 -14 0 -33 -8 -47 -8 -12 -17 -50 -21 -84 -5 -59 -3 -65 26
-104 56 -74 67 -93 67 -124 0 -51 41 -117 94 -152 52 -36 96 -42 116 -18 11
13 9 24 -10 61 -19 40 -21 55 -16 114 8 77 -3 95 -36 62 -26 -26 -39 -95 -25
-133 13 -34 0 -54 -30 -45 -28 9 -42 47 -50 133 -5 66 -9 76 -30 84 -41 16
-65 67 -59 129 3 36 11 59 23 68 25 19 117 11 143 -13 17 -15 27 -17 57 -9 34
8 38 13 46 52 8 41 10 43 40 40 26 -2 33 -8 35 -30 5 -40 27 -54 56 -35 17 12
38 14 79 10 47 -5 61 -11 89 -41 37 -39 77 -77 148 -140 35 -31 52 -57 65 -95
9 -29 25 -60 36 -70 10 -10 19 -24 19 -32 0 -27 -28 -15 -49 20 -20 34 -35 43
-45 27 -9 -15 27 -103 48 -117 16 -9 38 -11 86 -5 116 15 138 33 105 83 -13
21 -13 26 2 46 14 20 22 23 64 19 l49 -5 0 33 c0 40 26 123 46 145 8 8 14 22
14 29 0 8 12 27 27 42 34 35 93 40 93 8 0 -12 -7 -32 -16 -46 -22 -32 -13 -39
16 -14 50 43 79 1 36 -51 -14 -17 -26 -35 -26 -40 0 -21 32 -21 54 0 12 11 32
21 43 21 36 0 73 38 73 76 0 28 6 38 41 61 38 25 43 26 67 12 19 -10 29 -25
32 -49 4 -32 9 -35 40 -38 48 -5 55 -15 36 -53 -21 -43 -20 -66 4 -74 28 -9
43 -42 37 -81 -7 -39 4 -45 62 -34 55 10 89 55 79 106 -5 26 -28 30 -28 4 0
-25 -27 -80 -40 -80 -17 0 -24 21 -47 131 -7 38 10 43 45 14 38 -32 42 -31 42
3 0 29 -43 106 -73 131 -9 7 -17 22 -17 33 0 28 -18 58 -35 58 -8 0 -20 9 -27
20 -18 28 -56 26 -69 -4 -10 -22 -16 -23 -98 -22 -73 1 -91 5 -115 23 -20 17
-27 29 -24 50 3 24 7 28 31 25 22 -2 30 2 34 17 7 27 39 27 46 1 3 -11 10 -20
16 -20 14 0 14 27 1 35 -15 9 -12 45 5 51 8 4 26 -1 40 -10 13 -9 29 -16 35
-16 18 0 11 28 -10 35 -11 3 -25 18 -33 33 -10 22 -19 27 -45 25 -24 -2 -34 2
-43 20 -6 12 -13 24 -15 26 -2 2 -14 -6 -29 -17 -30 -24 -65 -18 -65 10 0 40
29 75 85 101 30 15 55 31 55 37 0 11 -48 12 -92 1 -27 -6 -108 -98 -108 -123
0 -26 -31 -58 -56 -58 -20 0 -24 5 -24 30 0 50 26 98 65 122 32 18 36 24 29
47 -4 14 -9 89 -10 166 -1 77 -2 146 -3 152 -1 8 -11 11 -29 7 -51 -10 -56 8
-62 220 -3 122 -9 189 -15 186 -5 -3 -10 -18 -10 -35 0 -25 -4 -30 -24 -30
-34 -1 -37 -20 -10 -76 18 -39 21 -55 13 -77 -10 -30 -32 -36 -45 -12 -28 55
-54 112 -71 160 -11 30 -27 62 -34 71 -8 8 -14 21 -14 27 0 21 -55 112 -67
112 -7 0 -13 -6 -13 -14z m301 -632 c18 -21 14 -234 -4 -246 -18 -11 -24 -10
-42 9 -15 14 -16 30 -10 117 9 128 23 159 56 120z"/>
<path d="M1280 1188 c-24 -26 -25 -32 -4 -63 20 -30 5 -55 -32 -55 -13 0 -24
-6 -24 -13 0 -24 -50 -86 -72 -89 -27 -4 -32 -18 -15 -42 18 -24 37 -14 107
58 70 73 89 109 90 174 0 59 -15 68 -50 30z"/>
</g>
</svg>
